<svg width="150" height="150" viewBox="0 0 150 150" fill="none" xmlns="http://www.w3.org/2000/svg">
<path d="M115.196 113.772C114.199 113.772 113.392 114.593 113.392 115.606V132.982C113.392 133.541 112.945 133.996 112.396 133.996H102.508V107.108C102.508 106.095 101.7 105.274 100.704 105.274C99.7078 105.274 98.8999 106.095 98.8999 107.108V133.996H79.7081C78.7123 133.996 77.9043 134.816 77.9043 135.83C77.9043 136.843 78.7123 137.665 79.7081 137.665H112.396C114.934 137.665 117 135.564 117 132.982V115.606C117 114.593 116.192 113.772 115.196 113.772Z" fill="#11376B" stroke="#11376B" stroke-width="0.1"/>
<path d="M107.479 79.8074C107.468 79.8026 107.456 79.7978 107.445 79.793L85.8773 71.2893V66.154C89.3027 63.444 91.6777 59.4277 92.2742 54.8457C96.4484 54.5466 99.5205 51.1046 99.5205 47.0405C99.5205 45.1552 98.8516 43.3539 97.6594 41.9511V35.155C97.6594 22.6168 87.6313 12.416 75.3043 12.416C62.9774 12.416 52.9484 22.6168 52.9484 35.155V42.1288C51.744 43.5182 51.0882 45.2278 51.0882 47.0405C51.0882 51.0998 54.1537 54.5456 58.3326 54.8457C58.9338 59.5147 61.3784 63.68 65.094 66.4254V71.2989C64.5811 71.5015 52.5538 76.244 43.5526 79.793C43.5413 79.7978 43.5301 79.8026 43.5188 79.8074C43.1298 79.9698 33.998 83.9135 33.998 94.7612V132.983C33.998 135.565 36.063 137.666 38.6015 137.666H71.2899C72.2858 137.666 73.0937 136.845 73.0937 135.831C73.0937 134.817 72.2858 133.996 71.2899 133.996H51.7092V108.417C51.7092 107.404 50.9022 106.583 49.9054 106.583C48.9086 106.583 48.1016 107.404 48.1016 108.417V133.996H38.6015C38.0529 133.996 37.6057 133.542 37.6057 132.983V94.7612C37.6057 89.2055 41.0132 84.8863 44.8792 83.2064L57.984 78.0386L63.5044 89.6747C63.5082 89.6823 63.5119 89.69 63.5157 89.6967C64.2992 91.2925 66.3689 92.1831 68.3813 90.7287L72.8739 96.3685C73.5146 97.1741 74.4673 97.6356 75.4857 97.6356C76.5041 97.6356 77.4567 97.1741 78.0974 96.3685L82.5947 90.723C84.6391 92.1974 86.7003 91.2638 87.466 89.7043L93.2137 78.1179C107.327 83.6832 106.102 83.1834 106.522 83.4042C110.657 85.5848 113.391 89.7741 113.391 94.7612V107.045C113.391 108.059 114.199 108.88 115.195 108.88C116.192 108.88 116.999 108.059 116.999 107.045V94.7612C117 83.9135 107.868 79.9698 107.479 79.8074ZM84.4784 87.581L78.0984 82.9732C82.6154 77.3009 81.349 78.8919 84.6494 74.7485L85.3728 75.0342C87.7441 75.9678 87.7647 75.9764 89.8325 76.7877L84.4784 87.581ZM66.5155 87.5762L61.3596 76.7084L66.3276 74.7533L72.8795 82.9789C67.9905 86.5108 66.9251 87.28 66.5155 87.5762ZM92.4255 51.1352V42.9458C94.5018 43.2889 95.9129 45.0424 95.9129 47.0405C95.9129 49.0501 94.4999 50.7921 92.4255 51.1352ZM56.556 35.155C56.556 24.6398 64.9663 16.0854 75.3043 16.0854C85.6415 16.0854 94.0517 24.6398 94.0517 35.155V39.5688C93.5275 39.4064 92.9836 39.2994 92.4255 39.2487C92.4255 37.479 92.4405 37.8201 86.7454 31.5936C85.6941 30.444 83.973 30.2051 82.6483 31.0852C76.1875 35.3786 68.4856 37.3433 61.6245 36.8426C60.08 36.7202 58.6604 37.7637 58.28 39.2994C57.7275 39.3643 57.0549 39.523 56.556 39.695V35.155ZM54.6958 47.0405C54.6958 45.0835 56.2882 43.4848 58.1832 43.0385V51.1352C56.0863 50.7893 54.6958 49.0262 54.6958 47.0405ZM61.7917 52.58C61.7917 49.9388 61.7917 42.8637 61.7917 40.5311C69.2306 40.9726 77.4332 38.8426 84.3356 34.3456C86.9699 37.2219 88.3641 38.6964 88.8179 39.263C88.8179 54.7855 88.8198 52.2943 88.8132 52.7683C88.5642 60.8028 82.1682 66.4847 74.658 66.0776C66.8837 65.6495 61.7917 59.3159 61.7917 52.58ZM82.2697 68.3414V71.9057L75.4979 80.4065L68.7026 71.8741V68.457C72.9218 70.1847 77.9208 70.2783 82.2697 68.3414ZM75.4857 93.8181L71.3294 88.5997L75.4932 85.5915L79.6476 88.593L75.4857 93.8181Z" fill="#11376B" stroke="#11376B" stroke-width="0.1"/>
<path d="M75.2459 57.567C77.8239 59.4533 81.1478 59.7094 84.2922 59.1762C85.7944 58.922 86.8767 57.7161 86.9857 56.1757C87.0956 54.6401 86.1965 53.2917 84.7507 52.8216C83.5218 52.4222 82.6049 51.8096 81.5245 50.9515C79.8917 49.6548 77.667 49.2726 75.2459 50.4957C72.8493 49.286 70.6218 49.6376 68.9673 50.9515C67.8869 51.8096 66.97 52.4222 65.7412 52.8216C64.2953 53.2917 63.3962 54.6401 63.5061 56.1757C63.6151 57.7161 64.6983 58.922 66.1996 59.1772C70.7693 59.9502 73.6272 58.751 75.2459 57.567ZM77.1681 53.6214C77.8577 53.2736 78.6957 53.3605 79.3036 53.8431C80.2496 54.5942 81.1478 55.2268 82.1934 55.7323C79.6869 55.8833 78.1602 55.201 77.2884 54.5397C76.9821 54.3075 76.6439 54.1336 76.2906 54.0199C76.596 53.9215 76.7576 53.8288 77.1681 53.6214ZM71.1883 53.8431C71.7961 53.3605 72.6342 53.2736 73.3237 53.6214C73.7418 53.8326 73.9006 53.9224 74.2012 54.0199C73.848 54.1336 73.5107 54.3075 73.2044 54.5397C72.3316 55.201 70.8097 55.8842 68.2984 55.7323C69.345 55.2268 70.2432 54.5942 71.1883 53.8431Z" fill="#11376B" stroke="#11376B" stroke-width="0.1"/>
</svg>
