<svg width="441" height="421" viewBox="0 0 441 421" fill="none" xmlns="http://www.w3.org/2000/svg">
<g clip-path="url(#clip0)">
<path d="M15.06 295.65H95.85C95.1 296.65 94.78 297.13 94.36 297.55C90.72 301.22 87 304.81 83.44 308.55C82.8433 309.219 82.1042 309.746 81.277 310.093C80.4498 310.439 79.5556 310.595 78.66 310.55C58.49 310.42 38.33 310.39 18.17 310.33H15.07C15.01 311.42 14.93 312.23 14.93 313.05C14.93 320.463 14.93 327.877 14.93 335.29C14.93 341.08 17.78 343.91 23.51 343.91H47.64C47.04 344.66 46.7 345.18 46.28 345.61C42.34 349.56 38.43 353.55 34.4 357.41C33.5165 358.209 32.3886 358.685 31.2 358.76C27.04 358.82 22.81 359.08 18.74 358.44C7.65 356.75 0.16 347.75 0 336.55V74.82C0 63.55 6.67 54.73 17.14 52.27C19.0867 51.8367 21.0757 51.622 23.07 51.63C34.07 51.57 45.07 51.63 56.07 51.63H59.5C59.5 48.74 59.5 46.02 59.5 43.3C59.57 36.06 59.63 28.81 59.73 21.57C59.81 15.37 64.12 11 70.33 11C100.737 11.1533 131.143 11.35 161.55 11.59C174.13 11.68 186.7 11.88 199.28 11.97C226.847 12.1567 254.42 12.3267 282 12.48C310.573 12.6733 339.143 12.8867 367.71 13.12C370.71 13.12 373.91 12.84 376.83 15.12C372.53 19.41 368.32 23.63 364.07 27.81C363.614 28.1375 363.071 28.322 362.51 28.34C361.761 28.385 361.009 28.385 360.26 28.34H75.06C75.06 29.41 74.93 30.34 74.93 31.19C74.93 39.94 75.01 48.69 74.87 57.44C74.87 59.86 75.55 60.44 77.94 60.44C161.273 60.38 244.607 60.3633 327.94 60.39H331.53C327.28 64.62 323.38 68.23 319.85 72.16C317.65 74.6 315.32 75.38 312.06 75.38C233.98 75.28 155.903 75.2533 77.83 75.3H74.28C74.15 77.65 73.95 79.71 73.94 81.77C73.86 99.1833 73.7967 116.593 73.75 134C73.75 138.47 71.26 140.79 66.42 140.8C61.13 140.8 58.81 138.8 58.84 134.12C58.9867 112.713 59.15 91.3067 59.33 69.9C59.33 68.9 59.33 67.9 59.33 66.65C58.19 66.59 57.22 66.48 56.25 66.48C45.4233 66.48 34.5933 66.48 23.76 66.48C17.7 66.48 14.93 69.27 14.93 75.38C14.93 147.793 14.93 220.207 14.93 292.62C14.93 293.49 15 294.31 15.06 295.65Z" fill="#11376B"/>
<path d="M160.67 402.44H282.4C280.12 397.77 278 393.38 275.84 388.99L259.51 355.86C256.26 349.28 259.59 343.94 266.95 343.94H416.95C423.39 343.94 426 341.32 426.01 334.84C426.01 328.093 426.01 321.343 426.01 314.59V311.79L157.81 310.79C161.62 307 165.25 303.79 168.34 300.19C171.14 296.91 174.25 295.95 178.51 295.98C223.25 296.26 267.99 296.33 312.73 296.47L342.98 296.57L422.98 296.96H425.9C425.95 295.87 426.03 294.96 426.03 294.1V75.6599C426.03 69.1599 423.41 66.5299 416.97 66.5299C412.31 66.5299 407.65 66.5299 402.54 66.5299C403.18 65.7299 403.54 65.2099 403.94 64.7799C407.88 60.7799 411.78 56.7799 415.82 52.9799C416.696 52.186 417.819 51.7196 419 51.6599C424.596 51.7023 429.966 53.876 434.016 57.7385C438.067 61.601 440.492 66.8618 440.8 72.4499C440.85 73.5299 440.9 74.6099 440.9 75.6899C440.9 162.11 440.9 248.523 440.9 334.93C440.9 344.76 437.16 352.31 428.2 356.6C425.107 358.02 421.744 358.757 418.34 358.76C372.59 358.9 326.85 358.85 281.1 358.85H277.66C279.87 363.39 281.92 367.63 284.01 371.85C288.62 381.17 293.27 390.47 297.88 399.79C298.806 401.642 299.246 403.7 299.16 405.769C299.075 407.838 298.465 409.852 297.389 411.621C296.313 413.391 294.805 414.858 293.008 415.886C291.21 416.914 289.181 417.47 287.11 417.5C278.11 417.62 269.11 417.5 260.11 417.5C226.283 417.5 192.453 417.5 158.62 417.5C148.12 417.5 141.43 407.19 145.89 397.99C149.3 390.99 152.77 383.99 156.18 376.92C158.76 371.61 161.3 366.27 163.84 360.92C164.11 360.34 164.28 359.71 164.58 358.92H110C110.75 358.06 111.18 357.51 111.66 357.02C115.48 353.18 119.25 349.28 123.2 345.58C124.268 344.629 125.631 344.075 127.06 344.01C143.22 343.91 159.39 344.17 175.55 343.84C182.29 343.7 186.04 349.84 183.09 355.74C175.88 370.08 169.09 384.65 162.18 399.12C161.71 400.14 161.25 401.18 160.67 402.44Z" fill="#11376B"/>
<path d="M21.0001 420.07C20.1301 419.85 19.0001 419.9 18.4201 419.37C15.8201 416.99 13.0201 414.69 10.9901 411.87C9.40008 409.64 10.2501 406.87 11.9401 404.65C12.5767 403.878 13.2649 403.149 14.0001 402.47C146.913 269.55 279.827 136.633 412.74 3.72C417.68 -1.22 421.23 -1.28 426.12 3.66C427.026 4.51937 427.878 5.43448 428.67 6.4C429.742 7.69941 430.312 9.33946 430.279 11.0233C430.246 12.7072 429.612 14.3236 428.49 15.58C427.897 16.2803 427.266 16.948 426.6 17.58L27.8601 416.33C26.0001 418.24 24.0701 420.14 21.0001 420.07Z" fill="#11376B"/>
<path d="M380.81 87.8701C380.81 90.8701 380.81 93.1401 380.81 95.4401C380.75 111.27 380.73 127.09 380.63 142.91C380.503 166.143 380.34 189.37 380.14 212.59C380.14 215.17 380.14 217.74 380.14 220.31C380.14 224.41 377.88 226.9 373.78 226.99C372.204 227.093 370.622 226.971 369.08 226.63C366.55 225.95 365.22 223.75 365.23 220.63C365.23 207.297 365.29 193.963 365.41 180.63C365.51 167.63 365.72 154.63 365.82 141.68C365.92 129.35 365.93 117.03 366.03 104.68C365.968 103.71 366.236 102.748 366.79 101.95C371.24 97.3701 375.8 92.8801 380.81 87.8701Z" fill="#11376B"/>
<path d="M65.79 195.41C60.88 195.41 58.72 193.41 58.72 188.9C58.72 184.39 60.92 182.33 65.81 182.32C70.7 182.31 72.92 184.45 72.92 188.91C72.92 193.37 70.68 195.41 65.79 195.41Z" fill="#11376B"/>
<path d="M65.75 169C60.85 169 58.75 167 58.75 162.38C58.75 157.76 60.95 155.89 66.12 155.91C70.71 155.91 72.97 158.1 72.95 162.49C72.93 166.88 70.59 169 65.75 169Z" fill="#11376B"/>
</g>
<defs>
<clipPath id="clip0">
<rect width="440.96" height="420.07" fill="white"/>
</clipPath>
</defs>
</svg>
